<mxfile host="app.diagrams.net" modified="2023-11-03T17:44:48.982Z" agent="Mozilla/5.0 (Windows NT 10.0; Win64; x64; rv:109.0) Gecko/20100101 Firefox/118.0" version="22.0.8" etag="DKlUMZpj0HfveKf_vF6o" type="github">
  <diagram name="Page-1" id="OMsSIWOA8XWRd-3esaTj">
    <mxGraphModel>
      <root>
        <mxCell id="0" />
        <mxCell id="1" parent="0" />
      </root>
    </mxGraphModel>
  </diagram>
</mxfile>
